# xmcd
#
# Track frame offsets: 
#        150
#        88437
#        133081
#        194446
#        266827
#
# Disc length: 4411 seconds
#
# Revision: 1
# Processed by: cddbd v1.5.2PL0 Copyright (c) Steve Scherf et al.
# Submitted via: ExactAudioCopy v1.0b3
#
DISCID=4d113905
DTITLE=Trio Labirynt ( Gembalski, Zduniak, Majchrzak) - Ethnic
DYEAR=1900
DGENRE=Jazz
TTITLE0=Wschod
TTITLE1=Zachod
TTITLE2=Polnoc
TTITLE3=Poludnie
TTITLE4=Etniczny
EXTD=
EXTT0=
EXTT1=
EXTT2=
EXTT3=
EXTT4=
PLAYORDER=
